<svg id="数据" xmlns="http://www.w3.org/2000/svg" width="16" height="16" viewBox="0 0 16 16">
  <rect id="矩形" width="16" height="16" opacity="0"/>
  <path id="形状" d="M12,16H4a.667.667,0,0,1,0-1.334H7.333V11.334H2a2.017,2.017,0,0,1-1.414-.586A1.988,1.988,0,0,1,0,9.333V2A2,2,0,0,1,2,0H14a2,2,0,0,1,2,2V9.333a2,2,0,0,1-2,2H8.667v3.333H12A.667.667,0,0,1,12,16ZM6.24,7.527,4.594,10H14a.667.667,0,0,0,.666-.667V2A.667.667,0,0,0,14,1.333H2A.667.667,0,0,0,1.333,2V9.333A.668.668,0,0,0,2,10h.994L5.44,6.32A.668.668,0,0,1,6.26,6.08l2.166.946,1.86-2.066A2,2,0,1,1,12,5.934a1.978,1.978,0,0,1-.668-.121L9.12,8.274a.666.666,0,0,1-.76.167L6.24,7.527ZM12,3.267a.666.666,0,1,0,.667.666A.668.668,0,0,0,12,3.267Z" fill="#fff"/>
</svg>
