<svg id="教材选择" xmlns="http://www.w3.org/2000/svg" width="16" height="16" viewBox="0 0 16 16">
  <rect id="矩形" width="16" height="16" opacity="0"/>
  <path id="形状" d="M12,14H2a1.939,1.939,0,0,1-2-1.868V1.867A1.939,1.939,0,0,1,2,0H12a1.939,1.939,0,0,1,2,1.867V12.133A1.94,1.94,0,0,1,12,14ZM2,.933a.969.969,0,0,0-1,.933V12.133a.97.97,0,0,0,1,.934H12a.97.97,0,0,0,1-.934V1.867a.969.969,0,0,0-1-.933Z" fill="#fff"/>
  <path id="形状-2" data-name="形状" transform="translate(2 2)" fill="#fff"/>
  <path id="形状-3" data-name="形状" d="M1.259,7.952a.2.2,0,0,1-.191-.146L.98,7.492a.2.2,0,0,1,.193-.254h.019c.227.021.352.031.409.031.252,0,.38-.141.38-.42V6.319c-.29.037-.833.095-1.614.173H.347a.2.2,0,0,1-.2-.172L.095,5.929a.2.2,0,0,1,.043-.154A.2.2,0,0,1,.279,5.7c.712-.047,1.3-.094,1.7-.135V5.026A6.653,6.653,0,0,0,2.818,4.3H1.635c-.245.194-.6.438-1.089.748a.2.2,0,0,1-.258-.039L.049,4.735A.2.2,0,0,1,0,4.572.2.2,0,0,1,.1,4.432L.144,4.4c.14-.084.251-.151.326-.2V3.766a.2.2,0,0,1,.2-.2h.662c.28-.242.507-.451.674-.62H.274a.2.2,0,0,1-.2-.2v-.36a.2.2,0,0,1,.2-.2H1.523V1.469H.679A.2.2,0,0,1,.536,1.41a.2.2,0,0,1-.058-.141V.935a.2.2,0,0,1,.2-.2h.844V.245a.2.2,0,0,1,.2-.2H2.11a.2.2,0,0,1,.2.2v.49h.662a.2.2,0,0,1,.2.2v.334a.2.2,0,0,1-.059.141.2.2,0,0,1-.142.058H2.309v.717h.362A14.111,14.111,0,0,0,3.741.495a.2.2,0,0,1,.174-.1A.2.2,0,0,1,4.01.417L4.3.569a.2.2,0,0,1,.1.121.193.193,0,0,1-.018.153c-.341.611-.6,1.051-.8,1.344h.283a.2.2,0,0,1,.2.2v.36a.2.2,0,0,1-.2.2H3c-.182.218-.372.427-.562.62H3.586a.2.2,0,0,1,.2.2V4.16a9.45,9.45,0,0,1-1.01,1.023v.28c.34-.055.751-.138,1.221-.248a.211.211,0,0,1,.046-.005.2.2,0,0,1,.2.2v.355a.2.2,0,0,1-.157.2c-.5.114-.94.2-1.311.253v.856a.774.774,0,0,1-.863.883H1.259Zm2.887-.017a.2.2,0,0,1-.17-.1l-.255-.417a.2.2,0,0,1,.055-.268A6.115,6.115,0,0,0,5.566,5.419,9.743,9.743,0,0,1,4.788,3.3c-.107.185-.224.365-.346.536a.2.2,0,0,1-.152.086H4.281a.2.2,0,0,1-.152-.068L3.9,3.6a.2.2,0,0,1-.013-.249,6.634,6.634,0,0,0,.61-1.2A7.478,7.478,0,0,0,5,.175.2.2,0,0,1,5.077.04.2.2,0,0,1,5.2,0L5.23,0,5.621.07A.2.2,0,0,1,5.78.309L5.633,1a.2.2,0,0,0,.2.242H7.514a.2.2,0,0,1,.2.2v.4a.2.2,0,0,1-.2.2H7.24v0a10,10,0,0,1-.8,3.439A9.461,9.461,0,0,0,7.857,7.2a.2.2,0,0,1,.023.253l-.254.376a.2.2,0,0,1-.153.087H7.462a.2.2,0,0,1-.152-.068A13.976,13.976,0,0,1,6.014,6.2,6.891,6.891,0,0,1,4.264,7.9.2.2,0,0,1,4.146,7.935Zm1.2-5.9h0l-.138.376a11.386,11.386,0,0,0,.76,2.2,8.047,8.047,0,0,0,.517-2.579H5.348Z" transform="translate(3.056 3.018)" fill="#fff"/>
</svg>
