<svg xmlns="http://www.w3.org/2000/svg" width="12" height="12" viewBox="0 0 12 12">
  <g id="下拉" transform="translate(-1529.5 -431.5)">
    <rect id="矩形_1" data-name="矩形 1" width="12" height="12" transform="translate(1529.5 431.5)" fill="none"/>
    <path id="Shape" d="M10.859.2a.571.571,0,0,1-.05.8L5.881,6.863A.583.583,0,0,1,5.5,7a.545.545,0,0,1-.367-.137L.209,1A.543.543,0,0,1,0,.615.575.575,0,0,1,.149.205.571.571,0,0,1,.536.01.578.578,0,0,1,.953.137L5.5,5.7,10.066.137A.545.545,0,0,1,10.433,0,.558.558,0,0,1,10.859.2Z" transform="translate(1530 434)" fill="#a0a2ad"/>
  </g>
</svg>
