<svg id="calendar" xmlns="http://www.w3.org/2000/svg" width="12" height="12" viewBox="0 0 12 12">
  <g id="Shape">
    <g id="编组">
      <path id="形状" d="M11.437,12H.563A.563.563,0,0,1,0,11.437V2.116a.563.563,0,0,1,.563-.562h.991V.563a.563.563,0,1,1,1.125,0v.991H5.438V.563a.563.563,0,1,1,1.125,0v.991H9.321V.563a.563.563,0,1,1,1.125,0v.991h.991A.563.563,0,0,1,12,2.116v9.321A.563.563,0,0,1,11.437,12ZM1.125,2.678v8.2h9.75v-8.2Z" transform="translate(0)" fill="#999"/>
      <path id="路径" d="M.562,1.125h.777A.562.562,0,0,0,1.339,0H.562a.562.562,0,0,0,0,1.125Z" transform="translate(5.049 3.884)" fill="#999"/>
      <path id="路径-2" data-name="路径" d="M.562,1.125h.777A.562.562,0,0,0,1.339,0H.562a.562.562,0,0,0,0,1.125Z" transform="translate(5.049 6.215)" fill="#999"/>
      <path id="路径-3" data-name="路径" d="M.562,1.125h.777A.562.562,0,0,0,1.339,0H.562a.562.562,0,0,0,0,1.125Z" transform="translate(5.049 8.545)" fill="#999"/>
      <path id="路径-4" data-name="路径" d="M.562,1.125h.777A.562.562,0,0,0,1.339,0H.562a.562.562,0,0,0,0,1.125Z" transform="translate(1.942 3.884)" fill="#999"/>
      <path id="路径-5" data-name="路径" d="M.562,1.125h.777A.562.562,0,0,0,1.339,0H.562a.562.562,0,0,0,0,1.125Z" transform="translate(1.942 6.215)" fill="#999"/>
      <path id="路径-6" data-name="路径" d="M.562,1.125h.777A.562.562,0,0,0,1.339,0H.562a.562.562,0,0,0,0,1.125Z" transform="translate(1.942 8.545)" fill="#999"/>
      <path id="路径-7" data-name="路径" d="M.562,1.125H1.34A.562.562,0,0,0,1.34,0H.562a.562.562,0,0,0,0,1.125Z" transform="translate(8.156 3.884)" fill="#999"/>
      <path id="路径-8" data-name="路径" d="M.562,1.125H1.34A.562.562,0,0,0,1.34,0H.562a.562.562,0,0,0,0,1.125Z" transform="translate(8.156 6.215)" fill="#999"/>
      <rect id="矩形" width="12" height="12" fill="none"/>
    </g>
  </g>
</svg>
