<svg id="微信" xmlns="http://www.w3.org/2000/svg" width="40" height="40" viewBox="0 0 40 40">
  <defs>
    <style>
      .cls-1 {
        opacity: 0;
      }

      .cls-2 {
        fill: #d8d8d8;
      }

      .cls-3 {
        fill: none;
      }
    </style>
  </defs>
  <rect id="矩形" class="cls-1" width="40" height="40"/>
  <path id="形状" class="cls-2" d="M17.571,35.141A17.571,17.571,0,0,1,5.146,5.146,17.571,17.571,0,0,1,29.995,30,17.456,17.456,0,0,1,17.571,35.141Zm7.014-9.483h0l2.176,1.231-.572-2.061c2.466-1.807,2.834-3.681,2.834-4.638a5.451,5.451,0,0,0-2.087-4.173,7.588,7.588,0,0,0-4.813-1.725,7.44,7.44,0,0,0-4.874,1.725,5.358,5.358,0,0,0,0,8.345,7.441,7.441,0,0,0,4.874,1.725,7.912,7.912,0,0,0,1.822-.285c.209-.049.424-.1.639-.145ZM14.25,8.252a8.932,8.932,0,0,0-5.74,1.976,6.336,6.336,0,0,0-2.39,4.9c0,2.1,1.088,3.927,3.235,5.439l-.83,2.462,2.891-1.461a9.418,9.418,0,0,0,2.834.458,6.162,6.162,0,0,0,.716-.028,6.864,6.864,0,0,1-.229-1.718,6.207,6.207,0,0,1,1.99-4.541,7.1,7.1,0,0,1,4.91-1.9,3.976,3.976,0,0,1,.773.086,6.659,6.659,0,0,0-2.856-4.08A9.441,9.441,0,0,0,14.25,8.252ZM24.385,19.131a.816.816,0,0,1-.8-.744.828.828,0,0,1,.8-.831.918.918,0,0,1,1,.831A.922.922,0,0,1,24.385,19.131Zm-4.495,0a.839.839,0,0,1-.8-.744.849.849,0,0,1,.8-.831.926.926,0,0,1,1.031.831C20.92,18.746,20.506,19.131,19.89,19.131Zm-2.634-5.44a1.092,1.092,0,0,1-1.174-1,1.081,1.081,0,0,1,1.174-1,1,1,0,1,1,0,2Zm-5.668,0a1.156,1.156,0,0,1-1.231-1,1.129,1.129,0,0,1,1.231-1,.973.973,0,0,1,1.031,1A.983.983,0,0,1,11.587,13.692Z" transform="translate(2.44 2.441)"/>
  <path id="路径" class="cls-3" d="M17.571,0A17.571,17.571,0,1,0,35.142,17.571,17.571,17.571,0,0,0,17.571,0Z" transform="translate(2.44 2.441)"/>
</svg>
