<svg id="班级" xmlns="http://www.w3.org/2000/svg" width="16" height="16" viewBox="0 0 16 16">
  <rect id="矩形" width="16" height="16" opacity="0"/>
  <path id="形状" d="M15.836,15.052H0v-4.47A2,2,0,0,1,1.993,8.588H7.855a1.991,1.991,0,0,1,1.84,1.226A2.053,2.053,0,0,1,9.963,9.8h3.883a2,2,0,0,1,1.991,2v3.26ZM9.963,10.96a.961.961,0,0,0-.114.007v2.92h4.823v-2.1a.829.829,0,0,0-.826-.831ZM1.993,9.752a.83.83,0,0,0-.829.829v3.306h7.52V10.581a.83.83,0,0,0-.829-.829ZM4.929,7.5A3.365,3.365,0,0,1,1.568,4.137V3.37A3.369,3.369,0,0,1,4.929,0H8.3V4.137A3.369,3.369,0,0,1,4.929,7.5Zm0-6.334a2.2,2.2,0,0,0-2.2,2.205v.768a2.2,2.2,0,0,0,4.4,0V1.165Z" transform="translate(0.085 0.627)" fill="#fff"/>
  <path id="形状-2" data-name="形状" d="M2.728,6.054A2.731,2.731,0,0,1,0,3.326V2.734A2.734,2.734,0,0,1,2.728,0H5.461V3.326A2.734,2.734,0,0,1,2.728,6.054Zm0-4.89A1.568,1.568,0,0,0,1.165,2.733v.593a1.566,1.566,0,0,0,3.132,0V1.165Z" transform="translate(9.264 3.794)" fill="#fff"/>
</svg>
