<svg id="课程" xmlns="http://www.w3.org/2000/svg" width="16" height="16" viewBox="0 0 16 16">
  <rect id="矩形" width="16" height="16" opacity="0"/>
  <path id="形状" d="M7.508,13.5H7.5a.647.647,0,0,1-.2-.034L.358,10.776A.567.567,0,0,1,0,10.242V3.5a.56.56,0,0,1,1.12,0V9.844L7.5,12.319l6.381-2.475V3.955a.56.56,0,0,1,1.12,0v6.286a.578.578,0,0,1-.358.534L7.7,13.465A.543.543,0,0,1,7.508,13.5Zm-.024-2.946a.47.47,0,0,1-.2-.046L2.825,8.636A.573.573,0,0,1,2.467,8.1V.579A.585.585,0,0,1,2.721.095.569.569,0,0,1,3.263.048L5.711,1.076a.575.575,0,0,1-.438,1.062L3.622,1.444V7.713L6.924,9.1V2.449a.57.57,0,0,1,.357-.531L11.737.048a.6.6,0,0,1,.543.046.569.569,0,0,1,.254.485V8.1a.57.57,0,0,1-.357.531L9.74,9.651A.575.575,0,0,1,9.3,8.589l2.078-.877V1.444l-3.3,1.384V9.963a.589.589,0,0,1-.254.485.543.543,0,0,1-.32.1Z" transform="translate(0.5 1.251)" fill="#fff"/>
</svg>
