<svg id="删_除_" data-name="删 除 " xmlns="http://www.w3.org/2000/svg" width="16" height="16" viewBox="0 0 16 16">
  <rect id="矩形" width="16" height="16" opacity="0"/>
  <path id="形状" d="M10.907,15.909H4.045a2.714,2.714,0,0,1-2.436-2.92V4.431H.764a.764.764,0,1,1,0-1.527h3.79a3,3,0,0,1,5.995.008h3.559a.764.764,0,1,1,0,1.527h-.765V12.99A2.714,2.714,0,0,1,10.907,15.909ZM3.112,4.5v8.537c0,.875.536,1.485,1.017,1.485v.007h6.959c.481,0,1.017-.61,1.017-1.485V4.5ZM7.439,1.383A1.517,1.517,0,0,0,5.88,2.767H8.992A1.52,1.52,0,0,0,7.439,1.383Z" transform="translate(0.564 0)" fill="#fff"/>
  <path id="形状-2" data-name="形状" d="M5.188,5.879A.722.722,0,0,1,4.5,5.116V.763A.731.731,0,0,1,5.188,0,.731.731,0,0,1,5.88.763V5.116A.731.731,0,0,1,5.188,5.879Zm-2.075,0h0a.731.731,0,0,1-.691-.762V.763A.731.731,0,0,1,3.112,0,.731.731,0,0,1,3.8.763V5.116a.731.731,0,0,1-.692.762Zm-2.421,0A.722.722,0,0,1,0,5.116V.763A.731.731,0,0,1,.692,0a.731.731,0,0,1,.691.763V5.116A.73.73,0,0,1,.692,5.879Z" transform="translate(5.06 6.571)" fill="#fff"/>
</svg>
