<svg id="作业统计" xmlns="http://www.w3.org/2000/svg" width="16" height="16" viewBox="0 0 16 16">
  <rect id="矩形" width="16" height="16" opacity="0"/>
  <path id="形状" d="M11.624,15.727H.6a.6.6,0,0,1-.6-.6V3.526a.6.6,0,0,1,.6-.6H2.512v-.8a.4.4,0,0,1,.4-.4h1.36a1.848,1.848,0,0,1,3.687,0H9.336a.4.4,0,0,1,.4.4v.736h1.888a.6.6,0,0,1,.6.6V15.126A.6.6,0,0,1,11.624,15.727ZM1.2,4.087v10.4h9.824L11,14.462V4.063H9.712v.864a.4.4,0,0,1-.4.4H2.887a.4.4,0,0,1-.4-.417V4.087Zm2.088-1.6V4.526H8.976V2.479h-1.4a.4.4,0,0,1-.392-.464,1.046,1.046,0,0,0,0-.184,1.052,1.052,0,1,0-2.1,0,1.046,1.046,0,0,0,0,.184.4.4,0,0,1-.391.473Z" transform="translate(1.888 0.274)" fill="#fff"/>
  <path id="形状-2" data-name="形状" d="M6.552,5.5H.4a.4.4,0,0,1,0-.8H6.549a.4.4,0,0,1,0,.8Zm0-2.353H.4a.4.4,0,0,1,0-.8H6.544a.4.4,0,0,1,.289.68A.4.4,0,0,1,6.552,3.152ZM6.552.8H.4A.4.4,0,0,1,.4,0H6.544a.4.4,0,0,1,.4.4A.4.4,0,0,1,6.552.8Z" transform="translate(4.528 7.136)" fill="#fff"/>
</svg>
