<svg xmlns="http://www.w3.org/2000/svg" xmlns:xlink="http://www.w3.org/1999/xlink" width="58.937" height="59.697" viewBox="0 0 58.937 59.697">
  <defs>
    <linearGradient id="linear-gradient" x1="0.5" y1="1" x2="0.5" gradientUnits="objectBoundingBox">
      <stop offset="0" stop-color="#ff9f00"/>
      <stop offset="1" stop-color="#febb1a"/>
    </linearGradient>
    <filter id="椭圆_5" x="0.124" y="1.271" width="58.609" height="58.427" filterUnits="userSpaceOnUse">
      <feOffset input="SourceAlpha"/>
      <feGaussianBlur stdDeviation="4" result="blur"/>
      <feFlood flood-color="#fff" flood-opacity="0.349"/>
      <feComposite operator="in" in2="blur"/>
      <feComposite in="SourceGraphic"/>
    </filter>
    <linearGradient id="linear-gradient-2" x1="0.5" y1="0.896" x2="0.5" gradientUnits="objectBoundingBox">
      <stop offset="0" stop-color="#f58800"/>
      <stop offset="0.439" stop-color="#ffc345"/>
      <stop offset="1" stop-color="#ffd642"/>
      <stop offset="1" stop-color="#fdf6dd"/>
    </linearGradient>
    <linearGradient id="linear-gradient-3" y1="0.5" x2="1" y2="0.5" gradientUnits="objectBoundingBox">
      <stop offset="0" stop-color="#ffb000"/>
      <stop offset="0.315" stop-color="#ffb104"/>
      <stop offset="0.486" stop-color="#ffdb0d"/>
      <stop offset="0.68" stop-color="#ffc40a"/>
      <stop offset="1" stop-color="#ffb805"/>
      <stop offset="1" stop-color="#fbb50d"/>
      <stop offset="1" stop-color="#fdb80a"/>
      <stop offset="1" stop-color="#fbb208"/>
      <stop offset="1" stop-color="#ffde5b"/>
      <stop offset="1" stop-color="#ffb601"/>
    </linearGradient>
    <pattern id="pattern" preserveAspectRatio="xMidYMid slice" width="100%" height="100%" viewBox="0 0 400 400">
      
    </pattern>
    <clipPath id="clip">
      <use xlink:href="#fill"/>
    </clipPath>
  </defs>
  <g id="第一名" transform="translate(-1.524)">
    <g id="第一名bg">
      <g id="翅膀" transform="translate(0 14.899)">
        <g id="描边" transform="translate(0.517 1.028)" fill="#bc6a08" stroke-miterlimit="10">
          <path d="M 18.84906959533691 25.87495994567871 L 18.1486988067627 25.85032081604004 C 18.07355880737305 25.84768104553223 16.28081893920898 25.77778053283691 13.87321949005127 25.09782028198242 C 11.64573955535889 24.46873092651367 8.455449104309082 23.17414093017578 5.906549453735352 20.57925033569336 L 5.892229080200195 20.56467056274414 L 5.879099369049072 20.54903030395508 C 3.908539295196533 18.20025062561035 3.467909336090088 17.44351005554199 3.736059188842773 16.86852073669434 C 3.794349193572998 16.74352073669434 3.981879234313965 16.45279121398926 4.463049411773682 16.45279121398926 C 4.593874454498291 16.45279121398926 4.746300220489502 16.47442245483398 4.92648458480835 16.51960372924805 C 4.775783061981201 16.37168312072754 4.632604122161865 16.2224006652832 4.49709939956665 16.07188034057617 L 4.472799301147461 16.04489135742188 L 4.452479362487793 16.01479148864746 C 3.24687933921814 14.22863101959229 2.853469371795654 12.99791049957275 3.249759197235107 12.25230121612549 C 3.453519344329834 11.86894035339355 3.837869167327881 11.65781116485596 4.332019329071045 11.65781116485596 C 4.408223152160645 11.65781116485596 4.48686695098877 11.66293811798096 4.567449569702148 11.67302989959717 C 4.420689582824707 11.52850914001465 4.281020164489746 11.38262844085693 4.148599147796631 11.235520362854 L 4.124309062957764 11.20854091644287 L 4.103999137878418 11.1784610748291 C 2.898409366607666 9.392331123352051 2.505009174346924 8.16162109375 2.901309251785278 7.416000843048096 C 3.105069160461426 7.032630920410156 3.489429235458374 6.821500778198242 3.983579158782959 6.821500778198242 C 4.081887722015381 6.821500778198242 4.184216022491455 6.830028533935547 4.289583683013916 6.846747398376465 C 3.844470262527466 6.471850872039795 3.448722839355469 6.092203140258789 3.103159189224243 5.708330631256104 L 3.078869342803955 5.681350708007812 L 3.058549165725708 5.651250839233398 C 1.743489265441895 3.70292067527771 1.274629235267639 2.34264063835144 1.664989233016968 1.608200788497925 C 1.839259266853333 1.280320763587952 2.172409296035767 1.092270731925964 2.57901930809021 1.092270731925964 C 3.155271053314209 1.092270731925964 3.91907811164856 1.458337545394897 4.849429607391357 2.180402517318726 C 9.500855445861816 5.582581996917725 14.42476272583008 5.680770874023438 14.97112941741943 5.680770874023438 C 14.99831962585449 5.680770874023438 15.01362895965576 5.680520534515381 15.01633930206299 5.680470943450928 L 15.46211910247803 5.671690940856934 L 15.54005908966064 6.110770702362061 L 16.45589447021484 11.30624008178711 L 16.54638862609863 11.33600044250488 L 16.58899879455566 11.66070079803467 L 17.24918937683105 16.69198036193848 L 17.34443855285645 17.41788101196289 L 17.05036544799805 17.35714912414551 L 17.49110794067383 20.71568298339844 L 18.67068862915039 25.19724082946777 L 18.84906959533691 25.87495994567871 Z" stroke="none"/>
          <path d="M 18.1670093536377 25.32981109619141 L 16.97900009155273 20.81623077392578 L 16.43813896179199 16.69478988647461 C 16.62532997131348 16.73752021789551 16.73277854919434 16.75974082946777 16.73277854919434 16.75974082946777 L 16.07258987426758 11.72846031188965 C 16.07258987426758 11.72846031188965 16.04287910461426 11.71869087219238 15.99709892272949 11.70376110076904 L 15.02712917327881 6.201190948486328 C 15.02712917327881 6.201190948486328 15.00806331634521 6.201605319976807 14.9711275100708 6.201605319976807 C 14.38610458374023 6.201605319976807 9.318583488464355 6.09763240814209 4.535699367523193 2.596210718154907 C 3.685278654098511 1.935314416885376 3.009955644607544 1.613105773925781 2.579018354415894 1.613105773925781 C 1.716354250907898 1.613105773925781 1.833623886108398 2.905495405197144 3.490249156951904 5.359870910644531 C 5.051059246063232 7.093700885772705 7.501729488372803 8.524351119995117 9.824919700622559 9.603550910949707 C 7.782259464263916 8.877941131591797 5.871879100799561 8.154800415039062 5.232669353485107 7.778010845184326 C 4.797792911529541 7.504555702209473 4.344525814056396 7.342334270477295 3.983575344085693 7.342334270477295 C 3.113251447677612 7.342334270477295 2.779754161834717 8.285579681396484 4.535699367523193 10.88707065582275 C 5.604779243469238 12.07472038269043 7.063419342041016 13.0631103515625 8.599919319152832 13.87015056610107 C 7.209129333496094 13.35565090179443 6.050919055938721 12.89125061035156 5.581149101257324 12.61432075500488 C 5.146244049072266 12.34086608886719 4.692967891693115 12.17864513397217 4.332015991210938 12.17864513397217 C 3.461688280105591 12.17864513397217 3.128241300582886 13.12189865112305 4.88417911529541 15.72341060638428 C 5.860899448394775 16.80835151672363 7.163149356842041 17.72622108459473 8.55225944519043 18.49239158630371 C 7.615659236907959 18.18177032470703 6.71631908416748 17.83470153808594 5.929629325866699 17.45066070556641 C 5.212820529937744 17.12860107421875 4.734173774719238 16.97361946105957 4.463053703308105 16.97361946105957 C 3.720474481582642 16.97361946105957 4.534896373748779 18.13648223876953 6.278109073638916 20.21427154541016 C 11.05734920501709 25.07974052429199 18.1670093536377 25.32981109619141 18.1670093536377 25.32981109619141 M 19.53112983703613 26.42010116577148 L 18.13039016723633 26.37083053588867 C 18.05268859863281 26.36810111999512 16.19902992248535 26.29589080810547 13.73165893554688 25.59905052185059 C 10.45027923583984 24.67230987548828 7.61591911315918 23.06270027160645 5.534979343414307 20.94422149658203 L 5.506359100341797 20.91508102416992 L 5.480099201202393 20.88378143310547 C 4.660169124603271 19.90649032592773 4.138579368591309 19.24210166931152 3.788849353790283 18.72955131530762 C 3.478419303894043 18.27458000183105 2.900589227676392 17.42771148681641 3.264029264450073 16.64838981628418 C 3.387953996658325 16.38265800476074 3.595750570297241 16.18035507202148 3.857131242752075 16.0595760345459 C 2.647682428359985 14.20442390441895 2.308849334716797 12.91284275054932 2.789859294891357 12.00785064697266 C 2.962416172027588 11.68319225311279 3.227150678634644 11.4397611618042 3.555013418197632 11.29397010803223 C 2.308065414428711 9.401033401489258 1.954322338104248 8.087967872619629 2.441399335861206 7.171560764312744 C 2.600580215454102 6.872057437896729 2.838190793991089 6.641691207885742 3.131457328796387 6.493324279785156 C 2.986187219619751 6.348540306091309 2.847615242004395 6.202929496765137 2.716069221496582 6.056800842285156 L 2.667479276657104 6.002830982208252 L 2.626849174499512 5.942640781402588 C 1.985519289970398 4.992470741271973 1.528839230537415 4.156250953674316 1.2694993019104 3.457200765609741 C 0.9438992738723755 2.579570770263672 0.922829270362854 1.894800782203674 1.205079317092896 1.363770723342896 C 1.47270929813385 0.8602307438850403 1.973489284515381 0.5714407563209534 2.57901930809021 0.5714407563209534 C 3.281979322433472 0.5714407563209534 4.127152442932129 0.9615877270698547 5.162507057189941 1.764102935791016 C 9.678701400756836 5.064501285552979 14.44241142272949 5.15993070602417 14.97112941741943 5.15993070602417 C 14.99087905883789 5.15993070602417 15.00291919708252 5.159790515899658 15.00682926177979 5.159720897674561 L 15.896409034729 5.144190788269043 L 16.052978515625 6.020360946655273 L 16.91470336914062 10.90885543823242 L 17.02017021179199 10.94354057312012 L 17.10540008544922 11.59294033050537 L 17.76558876037598 16.62421989440918 L 17.9560489654541 18.07565116882324 L 17.6619873046875 18.01499557495117 L 18.00319671630859 20.61506080627441 L 19.17436981201172 25.06467056274414 L 19.53112983703613 26.42010116577148 Z" stroke="none" fill="#c1710a"/>
        </g>
        <path id="形状_12" data-name="形状 12" d="M15.544,7.229S11.192,7.5,5.749,3.969C4.266,3.036.876.625,4.007,6.387c3.73,4.144,12.2,5.873,12.2,5.873Z" fill="#feea6a"/>
        <path id="形状_12_拷贝" data-name="形状 12 拷贝" d="M15.039,5.563S5.772,2.54,4.2,1.613C2.716.68,1.018,1.042,3.5,4.722c3.73,4.144,12.2,5.873,12.2,5.873Z" transform="translate(1.55 7.193)" fill="#feea6a"/>
        <path id="形状_12_拷贝_2" data-name="形状 12 拷贝 2" d="M14.871,5.776S7.815,4.418,4.031,1.825C2.548.893.85,1.254,3.334,4.934c3.907,3.705,12.2,5.873,12.2,5.873Z" transform="translate(2.067 11.817)" fill="#feea6a"/>
        <path id="形状_12_拷贝_3" data-name="形状 12 拷贝 3" d="M14.291,5.008S7.36,4,3.346,2.038c-2.68-1.2-2.261.132.7,3.109a19.326,19.326,0,0,0,11.54,4.77Z" transform="translate(3.1 16.44)" fill="#feea6a"/>
        <g id="描边-2" data-name="描边" transform="translate(42.367 1.028)" fill="#bc6a08" stroke-miterlimit="10">
          <path d="M 0.3425390720367432 25.9399242401123 L 0.5187790989875793 25.26330375671387 L 1.692057609558105 20.75883102416992 L 2.130845785140991 17.38018035888672 L 1.838449120521545 17.44124412536621 L 1.932689070701599 16.71455383300781 L 2.589349031448364 11.65801334381104 L 2.631569147109985 11.33291339874268 L 2.721417188644409 11.30332851409912 L 3.632639169692993 6.08069372177124 L 3.709589004516602 5.639663696289062 L 4.157168865203857 5.649503707885742 C 4.159348964691162 5.649553775787354 4.174499034881592 5.64979362487793 4.201388835906982 5.64979362487793 C 4.744556903839111 5.64979362487793 9.639741897583008 5.551046371459961 14.26469707489014 2.132856845855713 C 15.19085597991943 1.406528234481812 15.95176982879639 1.038293719291687 16.52649879455566 1.038293719291687 C 16.93014907836914 1.038293719291687 17.26161956787109 1.225303769111633 17.43593978881836 1.55138373374939 C 17.82856941223145 2.28584361076355 17.36335945129395 3.652683734893799 16.05321884155273 5.613943576812744 L 16.03310966491699 5.644053936004639 L 16.00901985168457 5.671083927154541 C 15.66321277618408 6.059248447418213 15.26687812805176 6.443118095397949 14.82082843780518 6.822165489196777 C 14.92713832855225 6.804965019226074 15.03035259246826 6.796193599700928 15.12950897216797 6.796193599700928 C 15.61976909637451 6.796193599700928 16.00203895568848 7.006203651428223 16.20589828491211 7.387533664703369 C 16.60475921630859 8.133633613586426 16.21471977233887 9.370503425598145 15.01347923278809 11.1688232421875 L 14.99335861206055 11.19894409179688 L 14.96926879882812 11.22598361968994 C 14.83554077148438 11.37608909606934 14.69438934326172 11.52491474151611 14.54595947265625 11.67234230041504 C 14.6270694732666 11.6620044708252 14.70620822906494 11.65675354003906 14.78289890289307 11.65675354003906 C 15.27315902709961 11.65675354003906 15.65542888641357 11.86676406860352 15.85927867889404 12.2480936050415 C 16.25814819335938 12.99419403076172 15.86809921264648 14.23106384277344 14.6668586730957 16.02937316894531 L 14.64673900604248 16.05949401855469 L 14.62263870239258 16.08653450012207 C 14.48576259613037 16.24016952514648 14.34105396270752 16.39248466491699 14.18859672546387 16.54342079162598 C 14.36903858184814 16.49761962890625 14.52162456512451 16.47570419311523 14.65263938903809 16.47570419311523 C 15.13114929199219 16.47570419311523 15.31874942779541 16.7652530670166 15.37718868255615 16.88974380493164 C 15.64688873291016 17.46420288085938 15.20913887023926 18.22421455383301 13.2480993270874 20.58614349365234 L 13.23505878448486 20.60185432434082 L 13.22083950042725 20.61648368835449 C 10.68528938293457 23.22477340698242 7.511478900909424 24.526123046875 5.295479297637939 25.15853309631348 C 2.900038957595825 25.84214401245117 1.116069078445435 25.91243362426758 1.041299104690552 25.91508293151855 L 0.3425390720367432 25.9399242401123 Z" stroke="none"/>
          <path d="M 1.022799015045166 25.39458465576172 C 1.022799015045166 25.39458465576172 8.093938827514648 25.14325332641602 12.84737873077393 20.25344276428223 C 14.5811710357666 18.16521072387695 15.39119720458984 16.99653816223145 14.6526403427124 16.99653816223145 C 14.38298892974854 16.99653816223145 13.90692710876465 17.15230178833008 13.19399929046631 17.47597312927246 C 12.41153907775879 17.8619441986084 11.51708889007568 18.21072387695312 10.58546924591064 18.5229434967041 C 11.96714878082275 17.75295448303223 13.26233863830566 16.8304328918457 14.2337589263916 15.74007415771484 C 15.98020458221436 13.12557697296143 15.64853000640869 12.17758655548096 14.7829008102417 12.17758655548096 C 14.4238977432251 12.17758655548096 13.9730749130249 12.34062099456787 13.54052925109863 12.61545372009277 C 13.07329940795898 12.89374351501465 11.92135906219482 13.36042404174805 10.53811931610107 13.87754344940186 C 12.06628894805908 13.06643390655518 13.51698875427246 12.07315349578857 14.58037948608398 10.87952327728271 C 16.32682418823242 8.265012741088867 15.99514102935791 7.317026615142822 15.1295051574707 7.317026615142822 C 14.77049922943115 7.317026615142822 14.31968021392822 7.480052471160889 13.88712882995605 7.754873752593994 C 13.25136947631836 8.133543968200684 11.35137939453125 8.86030387878418 9.319799423217773 9.589633941650391 C 11.63032913208008 8.504983901977539 14.0677490234375 7.067163944244385 15.6201286315918 5.324633598327637 C 17.26787757873535 2.857974529266357 17.38451194763184 1.559125065803528 16.5265007019043 1.559125065803528 C 16.09788703918457 1.559125065803528 15.42619609832764 1.882962703704834 14.58037948608398 2.547183752059937 C 9.823314666748047 6.066110134124756 4.783244132995605 6.170626640319824 4.201393127441406 6.170629978179932 C 4.164657115936279 6.170629978179932 4.145719051361084 6.17021369934082 4.145719051361084 6.17021369934082 L 3.180859088897705 11.70027351379395 C 3.135459184646606 11.71533393859863 3.105849027633667 11.72508335113525 3.105849027633667 11.72508335113525 L 2.449189186096191 16.78162384033203 C 2.449189186096191 16.78162384033203 2.556069135665894 16.75927352905273 2.742269039154053 16.71635437011719 L 2.204339027404785 20.85839462280273 L 1.022799015045166 25.39458465576172 M -0.3377109169960022 26.48526382446289 L 0.01476907078176737 25.13202285766602 L 1.179786086082458 20.65926933288574 L 1.520015478134155 18.03951644897461 L 1.228009104728699 18.10042381286621 L 1.416199088096619 16.64747428894043 L 2.072859048843384 11.59093379974365 L 2.157289028167725 10.94075393676758 L 2.261994600296021 10.90627288818359 L 3.119559049606323 5.99117374420166 L 3.273478984832764 5.108953475952148 L 4.168808937072754 5.128803730010986 C 4.170508861541748 5.128823757171631 4.182239055633545 5.128963947296143 4.201388835906982 5.128963947296143 C 4.726749897003174 5.12895393371582 9.460124969482422 5.033256053924561 13.94916725158691 1.718413829803467 C 14.98085594177246 0.9103226661682129 15.82402420043945 0.5174537301063538 16.52649879455566 0.5174537301063538 C 17.12851905822754 0.5174537301063538 17.62741851806641 0.8048136830329895 17.89525985717773 1.305833697319031 C 18.17874908447266 1.836123704910278 18.15969848632812 2.522113800048828 17.8370189666748 3.402983665466309 C 17.57961845397949 4.105663776397705 17.12517929077148 4.946873664855957 16.48630905151367 5.903253555297852 L 16.44608879089355 5.963473796844482 L 16.39790916442871 6.017543792724609 C 16.26410675048828 6.167735576629639 16.12306594848633 6.31731128692627 15.97498607635498 6.466092586517334 C 16.26781463623047 6.613698959350586 16.50554466247559 6.843313217163086 16.66521835327148 7.141983509063721 C 17.15594863891602 8.059925079345703 16.80358505249023 9.381736755371094 15.55605697631836 11.29236793518066 C 15.88215923309326 11.43747329711914 16.14597320556641 11.67963695526123 16.31859970092773 12.00254344940186 C 16.8032283782959 12.90907287597656 16.46574974060059 14.20927429199219 15.25569629669189 16.08170890808105 C 15.51657009124756 16.20196723937988 15.7243185043335 16.40354919433594 15.84865951538086 16.66839408874512 C 16.21365928649902 17.44586372375488 15.64006900787354 18.29572296142578 15.3319091796875 18.75230407714844 C 14.98420906066895 19.26748275756836 14.46511936187744 19.93567276000977 13.64881896972656 20.91885375976562 L 13.6227388381958 20.95025444030762 L 13.59428882598877 20.97952461242676 C 11.52395915985107 23.1092529296875 8.703699111938477 24.72751426696777 5.438408851623535 25.65936279296875 C 2.982649087905884 26.36019325256348 1.137159109115601 26.4328441619873 1.059799075126648 26.43559455871582 L -0.3377109169960022 26.48526382446289 Z" stroke="none" fill="#c1710a"/>
        </g>
        <path id="形状_12-2" data-name="形状 12" d="M1.562,7.2s4.328.277,9.741-3.276c1.476-.937,4.847-3.361,1.733,2.43-3.71,4.164-12.131,5.9-12.131,5.9Z" transform="translate(44.95)" fill="#feea6a"/>
        <path id="形状_12_拷贝-2" data-name="形状 12 拷贝" d="M1.556,5.56s9.217-3.038,10.781-3.97c1.476-.937,3.164-.574.693,3.125C9.32,8.879.9,10.616.9,10.616Z" transform="translate(43.917 7.193)" fill="#feea6a"/>
        <path id="形状_12_拷贝_2-2" data-name="形状 12 拷贝 2" d="M1.209,5.8s7.018-1.364,10.781-3.97c1.476-.938,3.164-.574.693,3.125C8.8,8.675.553,10.853.553,10.853Z" transform="translate(43.917 11.817)" fill="#feea6a"/>
        <path id="形状_12_拷贝_3-2" data-name="形状 12 拷贝 3" d="M2.308,5.048S9.2,4.033,13.194,2.063C15.86.853,15.443,2.2,12.5,5.188A19.1,19.1,0,0,1,1.023,9.982Z" transform="translate(42.367 16.44)" fill="#feea6a"/>
      </g>
      <g id="外圈" transform="translate(6.717 8.22)">
        <g id="形状_11" data-name="形状 11" transform="translate(0.97 1.618)" stroke-miterlimit="10" fill="url(#linear-gradient)">
          <path d="M 23.30588150024414 42.99861526489258 C 21.56915664672852 41.44636154174805 15.58245372772217 38.33548736572266 10.27078437805176 35.57543563842773 L 10.15097427368164 35.51318740844727 C 7.716104030609131 34.24791717529297 5.779694080352783 33.03879547119141 4.551094055175781 32.01652526855469 C 3.224718332290649 30.91290283203125 3.109046220779419 30.36314010620117 3.105735778808594 30.21664237976074 C 3.543613433837891 29.00000190734863 3.956395387649536 26.2215404510498 3.042223930358887 24.65798759460449 L 3.021653890609741 24.62280654907227 L 2.995863914489746 24.59125709533691 C 0.6338967680931091 21.70152473449707 0.3519306778907776 19.64564323425293 0.5867375135421753 19.00856399536133 C 2.443710803985596 17.21501922607422 3.646106958389282 14.92749500274658 3.808743953704834 12.87110710144043 L 3.817624092102051 12.75881671905518 L 3.779304027557373 12.65287685394287 C 3.020253896713257 10.55449676513672 3.515444040298462 9.278676986694336 3.763583898544312 8.827556610107422 C 4.003633975982666 8.39112663269043 4.282124042510986 8.193456649780273 4.4476637840271 8.156786918640137 C 4.807573795318604 8.07707691192627 8.012554168701172 7.265316963195801 9.692234039306641 3.363377094268799 L 9.704394340515137 3.335136890411377 L 9.713144302368164 3.305666923522949 C 10.26168441772461 1.457787036895752 11.32520389556885 0.5208370089530945 12.87417411804199 0.5208370089530945 C 13.80146408081055 0.5208370089530945 14.56486415863037 0.8636869788169861 14.57247352600098 0.867156982421875 L 14.67533397674561 0.9140070080757141 L 14.7896842956543 0.9146069884300232 L 31.91220474243164 0.9146069884300232 L 32.01037216186523 0.9146069884300232 L 32.10180282592773 0.8788769841194153 C 32.33604431152344 0.7873169779777527 32.95976257324219 0.5743770003318787 33.69045257568359 0.5743770003318787 C 35.22995376586914 0.5743770003318787 36.28731536865234 1.509986996650696 36.83314514160156 3.355226993560791 L 36.84184265136719 3.384636878967285 L 36.85393524169922 3.412817001342773 C 38.5260124206543 7.3106369972229 41.71698379516602 8.121597290039062 42.07533264160156 8.201236724853516 C 42.23884582519531 8.237566947937012 42.5142822265625 8.43360710144043 42.7525634765625 8.86656665802002 C 43.00057220458984 9.317216873168945 43.49570465087891 10.59202671051025 42.73889541625977 12.69152736663818 L 42.70081329345703 12.79714679718018 L 42.70964431762695 12.90907669067383 C 42.87153244018555 14.96276187896729 44.06813812255859 17.24731826782227 45.91633224487305 19.03874969482422 C 46.15018463134766 19.67513656616211 45.86977005004883 21.72869682312012 43.51876449584961 24.61506652832031 L 43.49306488037109 24.6466178894043 L 43.47257232666016 24.68177604675293 C 42.56272506713867 26.24332046508789 42.97358703613281 29.01800346374512 43.40940856933594 30.23292922973633 C 43.40615844726562 30.37925148010254 43.29122161865234 30.92862319946289 41.97106552124023 32.03092575073242 C 40.74836349487305 33.05184555053711 38.82124328613281 34.25935745239258 36.39804458618164 35.52290725708008 L 36.27614212036133 35.58646774291992 C 30.99156379699707 38.34213256835938 25.03558349609375 41.44794464111328 23.30588150024414 42.99861526489258 Z" stroke="none"/>
          <path d="M 23.30538940429688 42.32208251953125 C 25.24632453918457 40.79586410522461 30.06047439575195 38.24026107788086 36.03533554077148 35.12465667724609 L 36.15723419189453 35.06108856201172 C 38.40091323852539 33.89114761352539 40.15437316894531 32.81049728393555 41.3688850402832 31.84914779663086 C 42.52154922485352 30.93675422668457 42.80508041381836 30.42893409729004 42.8713493347168 30.26784324645996 C 42.45883178710938 28.99815940856934 42.01023864746094 26.15697288513184 43.02256393432617 24.4195671081543 L 43.06354522705078 24.34924697875977 L 43.11494445800781 24.28613662719727 C 44.40771484375 22.69897651672363 44.97810363769531 21.46908760070801 45.22896575927734 20.71680641174316 C 45.47433090209961 19.98101234436035 45.47935485839844 19.51385116577148 45.44874954223633 19.30990409851074 C 44.46270751953125 18.33416748046875 43.67477416992188 17.25329971313477 43.10490417480469 16.09402656555176 C 42.58548355102539 15.03736686706543 42.26926422119141 13.95018672943115 42.19041442871094 12.95000743865967 L 42.17277526855469 12.72614669799805 L 42.24892425537109 12.51490688323975 C 42.73779296875 11.1586971282959 42.65727233886719 10.20384693145752 42.50364303588867 9.641636848449707 C 42.32915878295898 9.003140449523926 42.02557373046875 8.74446964263916 41.9479866027832 8.706428527832031 C 41.49930953979492 8.603817939758301 38.12935256958008 7.707088947296143 36.37528228759766 3.618146896362305 L 36.35110473632812 3.561776876449585 L 36.33370208740234 3.50296688079834 C 35.85444259643555 1.882797002792358 34.98983383178711 1.095216989517212 33.69045257568359 1.095216989517212 C 33.04836273193359 1.095216989517212 32.49815368652344 1.283167004585266 32.2913932800293 1.363976955413818 L 32.10853576660156 1.435446977615356 L 31.91220474243164 1.435446977615356 L 14.7896842956543 1.435446977615356 L 14.56063365936279 1.435446977615356 L 14.3527135848999 1.339357018470764 C 14.34626388549805 1.336377024650574 13.67266368865967 1.041666984558105 12.87417411804199 1.041666984558105 C 11.56493377685547 1.041666984558105 10.69427394866943 1.83070695400238 10.21244430541992 3.453876972198486 L 10.19494438171387 3.512826919555664 L 10.17062377929688 3.569317102432251 C 8.407618522644043 7.664824485778809 5.020617008209229 8.56059741973877 4.573816776275635 8.662260055541992 C 4.496316909790039 8.699424743652344 4.190420150756836 8.956877708435059 4.014103889465332 9.596906661987305 C 3.859004020690918 10.15988731384277 3.777354001998901 11.1163272857666 4.269083976745605 12.47571659088135 L 4.345724105834961 12.68757724761963 L 4.327953815460205 12.91217708587646 C 4.248733997344971 13.91384696960449 3.93096399307251 15.00257682800293 3.409003973007202 16.06066703796387 C 2.836542844772339 17.22113609313965 2.045137643814087 18.30302810668945 1.054701328277588 19.27971458435059 C 1.023446559906006 19.48583030700684 1.028995037078857 19.95292091369629 1.27501392364502 20.68796730041504 C 1.527083992958069 21.44112777709961 2.100224018096924 22.67250633239746 3.399133920669556 24.26163673400879 L 3.450713872909546 24.32474708557129 L 3.491843938827515 24.39509773254395 C 4.508947372436523 26.13469505310059 4.058487892150879 28.97945404052734 3.644017457962036 30.25129699707031 C 3.710983753204346 30.41300964355469 3.99674654006958 30.92193412780762 5.155143737792969 31.8354663848877 C 6.375624179840088 32.79794692993164 8.137264251708984 33.87981796264648 10.39113426208496 35.051025390625 L 10.5109338760376 35.11327743530273 C 16.51754951477051 38.23443984985352 21.3568172454834 40.79436111450195 23.30538940429688 42.32208251953125 M 23.31289482116699 43.59299850463867 C 23.25508880615234 43.59299850463867 23.22037887573242 43.56443786621094 23.18658065795898 43.56443786621094 C 23.17568588256836 43.56443786621094 23.16489410400391 43.56740188598633 23.15344429016113 43.57524871826172 C 21.84122467041016 42.16913604736328 15.17083358764648 38.70859527587891 9.910823822021484 35.97534561157227 C 4.650864124298096 33.24204635620117 2.429224014282227 31.17698669433594 2.592603921890259 30.10267639160156 C 3.001003980636597 29.02837753295898 3.409394025802612 26.31786727905273 2.592603921890259 24.92086791992188 C 0.06067397445440292 21.82320785522461 -0.2660760283470154 19.51511764526367 0.1531039774417877 18.70270729064941 C 2.287653923034668 16.67556762695312 3.164334058761597 14.41306686401367 3.289534091949463 12.83004665374756 C 2.189604043960571 9.789306640625 3.409394025802612 7.853296756744385 4.335033893585205 7.648276805877686 C 5.260714054107666 7.443256855010986 7.819933891296387 6.39553689956665 9.213844299316406 3.157447099685669 C 9.978463172912598 0.5816435813903809 11.58219528198242 1.524047888779023e-06 12.87417602539062 1.524047888779023e-06 C 13.93757629394531 1.524047888779023e-06 14.7896842956543 0.3937769830226898 14.7896842956543 0.3937769830226898 L 31.91220474243164 0.3937769830226898 C 32.18653106689453 0.2865584790706635 32.87635803222656 0.05354476720094681 33.69045257568359 0.05354476720094681 C 34.97586059570312 0.05354476720094681 36.57137680053711 0.6341473460197449 37.33258438110352 3.207487106323242 C 38.71994400024414 6.441586971282959 41.26701354980469 7.488057136535645 42.18832397460938 7.692807197570801 C 43.10963439941406 7.897497177124023 44.32361221313477 9.831147193908691 43.22886276245117 12.8681468963623 C 43.35349273681641 14.44917678833008 44.22604370117188 16.70889663696289 46.35039520263672 18.73354721069336 C 46.76772308349609 19.54489707946777 46.44257354736328 21.85016632080078 43.92259216308594 24.9439868927002 C 43.10963439941406 26.3392276763916 43.51604461669922 29.04635620117188 43.92259216308594 30.11932754516602 C 44.08514404296875 31.19233703613281 41.87405395507812 33.25489807128906 36.63885498046875 35.98472595214844 C 31.40380477905273 38.71460723876953 24.76498413085938 42.17079544067383 23.458984375 43.57524871826172 C 23.44758605957031 43.56740570068359 23.43760681152344 43.56443786621094 23.42792510986328 43.56443786621094 C 23.39788055419922 43.56443786621094 23.37070465087891 43.59299850463867 23.31289482116699 43.59299850463867 Z" stroke="none" fill="#bc6a08"/>
        </g>
        <path id="Combined_shape_1876" data-name="Combined shape 1876" d="M46.66,22.15h0c-.065-.643-.16-1.29-.28-1.923.074.075.156.156.251.246A2.647,2.647,0,0,1,46.66,22.15Zm-2.708-8.637v0a22.89,22.89,0,0,0-3.576-4.826,6.024,6.024,0,0,0,2.23,1.11,1.839,1.839,0,0,1,1.091,1.1,4.5,4.5,0,0,1,.256,2.615ZM4.634,11.824h0A2.382,2.382,0,0,1,6.011,9.751c.08-.018.166-.041.256-.068A22.988,22.988,0,0,0,4.634,11.824ZM39.152,7.509a22.869,22.869,0,0,0-8.4-4.776h1.919A4.944,4.944,0,0,1,34.39,2.4c2.165,0,3.109,1.659,3.521,3.051a8.4,8.4,0,0,0,1.243,2.053ZM10.539,5.819h0c.066-.134.13-.273.189-.412.414-1.393,1.363-3.054,3.539-3.054a4.932,4.932,0,0,1,1.852.381H16.8A22.973,22.973,0,0,0,10.539,5.819Z" fill="#fd9"/>
      </g>
      <path id="形状_13" data-name="形状 13" d="M44.865,21.9A15.415,15.415,0,0,1,41.1,26.149,18.725,18.725,0,0,1,7.932,29.043C7.246,27.949,5.424,25.152,5.1,24.82c-.473-.483-.88-.9-1.705-1.887C1.353,20.483.691,18.777,1.3,17.752c2.048-2.332,3.867-3.806,4.53-4.836a47.6,47.6,0,0,1,3.4-5.166A18.731,18.731,0,0,1,41.2,12.7a24.217,24.217,0,0,1,3.666,4.014C47.445,18.745,45.619,20.678,44.865,21.9Z" transform="translate(7.233 10.789)" fill="#fbd473"/>
      <g transform="matrix(1, 0, 0, 1, 1.52, 0)" filter="url(#椭圆_5)">
        <g id="椭圆_5-2" data-name="椭圆 5" transform="translate(12.43 13.36)" fill="#bd6c13" stroke-miterlimit="10">
          <path d="M 17.00273704528809 33.81873321533203 C 12.52012729644775 33.81873321533203 8.30567741394043 32.08278274536133 5.13573694229126 28.9306640625 C 1.965027093887329 25.77776527404785 0.2188370525836945 21.5855541229248 0.2188370525836945 17.12628364562988 C 0.2188370525836945 12.66698455810547 1.965027093887329 8.474754333496094 5.13573694229126 5.321854591369629 C 8.30567741394043 2.169734477996826 12.52011680603027 0.4337845742702484 17.00273704528809 0.4337845742702484 C 21.48531723022461 0.4337845742702484 25.69974708557129 2.169734477996826 28.86969757080078 5.321854591369629 C 32.04044723510742 8.474764823913574 33.78664779663086 12.66699504852295 33.78664779663086 17.12628364562988 C 33.78664779663086 21.58554458618164 32.04044723510742 25.77775382995605 28.86969757080078 28.9306640625 C 25.69974708557129 32.08278274536133 21.48530769348145 33.81873321533203 17.00273704528809 33.81873321533203 Z" stroke="none"/>
          <path d="M 17.00273704528809 0.9546241760253906 C 8.02082633972168 0.9546241760253906 0.7396583557128906 8.194873809814453 0.7396583557128906 17.12628364562988 C 0.7396583557128906 26.05761337280273 8.02082633972168 33.29790496826172 17.00273704528809 33.29790496826172 C 25.98453712463379 33.29790496826172 33.26580810546875 26.05761337280273 33.26580810546875 17.12628364562988 C 33.26580810546875 8.194873809814453 25.98453712463379 0.9546241760253906 17.00273704528809 0.9546241760253906 M 17.00273704528809 -0.08704376220703125 C 19.33766746520996 -0.08704376220703125 21.60335731506348 0.3679428100585938 23.73688697814941 1.265274047851562 C 25.79748725891113 2.131923675537109 27.6479663848877 3.372505187988281 29.23693656921387 4.952533721923828 C 30.82630729675293 6.532964706420898 32.07432556152344 8.373764038085938 32.94632720947266 10.42379379272461 C 33.84951782226562 12.54717445373535 34.30747604370117 14.80221366882324 34.30747604370117 17.12628364562988 C 34.30747604370117 19.4503345489502 33.84951782226562 21.70536422729492 32.94632720947266 23.8287353515625 C 32.07432556152344 25.87875366210938 30.82630729675293 27.71955490112305 29.23693656921387 29.29998397827148 C 27.6479663848877 30.88001441955566 25.79748725891113 32.1205940246582 23.73688697814941 32.98725509643555 C 21.60335731506348 33.88458633422852 19.33766746520996 34.33957290649414 17.00273704528809 34.33957290649414 C 14.66778755187988 34.33957290649414 12.40207672119141 33.88458633422852 10.26854705810547 32.98725509643555 C 8.207937240600586 32.1205940246582 6.357456207275391 30.88001441955566 4.768487930297852 29.29998397827148 C 3.179126739501953 27.71955490112305 1.931118011474609 25.87875366210938 1.059127807617188 23.8287353515625 C 0.1559486389160156 21.70536422729492 -0.3020133972167969 19.4503345489502 -0.3020133972167969 17.12628364562988 C -0.3020133972167969 14.80221366882324 0.1559486389160156 12.54717445373535 1.059127807617188 10.42380523681641 C 1.931118011474609 8.373764038085938 3.179126739501953 6.532964706420898 4.768487930297852 4.952533721923828 C 6.357456207275391 3.372505187988281 8.207937240600586 2.131923675537109 10.26854705810547 1.265266418457031 C 12.40206718444824 0.3679428100585938 14.66777610778809 -0.08704376220703125 17.00273704528809 -0.08704376220703125 Z" stroke="none" fill="#c87819"/>
        </g>
      </g>
      <g id="Combined_shape_1879" data-name="Combined shape 1879" transform="translate(22.733)" stroke-miterlimit="10" fill="url(#linear-gradient-2)">
        <path d="M 12.65697002410889 10.78227043151855 L 4.054230690002441 10.78227043151855 L 4.054230690002441 9.950400352478027 L 4.054230690002441 9.868380546569824 L 4.029020309448242 9.79032039642334 L 2.804543256759644 5.999210357666016 C 3.331223487854004 6.250421047210693 3.912422895431519 6.383430480957031 4.509900569915771 6.383430480957031 C 5.482040405273438 6.383430480957031 6.413990497589111 6.030230522155762 7.134060382843018 5.388880252838135 C 7.68126392364502 4.90149450302124 8.071027755737305 4.280264854431152 8.266929626464844 3.596147775650024 C 8.462752342224121 4.28021764755249 8.852312088012695 4.901346206665039 9.399250030517578 5.388700485229492 C 10.119140625 6.030160427093506 11.05097007751465 6.383430480957031 12.02310085296631 6.383430480957031 C 12.65236186981201 6.383430480957031 13.26309108734131 6.236410140991211 13.81087207794189 5.959560871124268 L 12.67821025848389 9.803180694580078 L 12.65697002410889 9.875260353088379 L 12.65697002410889 9.950400352478027 L 12.65697002410889 10.78227043151855 Z M 15.03180027008057 4.612770080566406 C 14.93784999847412 4.612770080566406 14.84507083892822 4.599990367889404 14.75603008270264 4.574800491333008 L 14.66201877593994 4.548200607299805 L 14.57524013519287 4.503870487213135 C 14.25214004516602 4.338820457458496 14.05143070220947 4.01731014251709 14.05143070220947 3.664800405502319 C 14.05143070220947 3.142590284347534 14.49122047424316 2.717730283737183 15.03180027008057 2.717730283737183 C 15.57238006591797 2.717730283737183 16.01217079162598 3.142590284347534 16.01217079162598 3.664800405502319 C 16.01217079162598 4.18751049041748 15.57238006591797 4.612770080566406 15.03180027008057 4.612770080566406 Z M 1.501200437545776 4.612770080566406 C 0.9606204628944397 4.612770080566406 0.5208304524421692 4.18751049041748 0.5208304524421692 3.664800405502319 C 0.5208304524421692 3.142590284347534 0.9606204628944397 2.717730283737183 1.501200437545776 2.717730283737183 C 2.042270421981812 2.717730283737183 2.482470512390137 3.142590284347534 2.482470512390137 3.664800405502319 C 2.482470512390137 4.017200469970703 2.281780481338501 4.338640213012695 1.958730459213257 4.503680229187012 L 1.882921814918518 4.542408466339111 L 1.801350474357605 4.567690372467041 C 1.704850435256958 4.59760046005249 1.603870511054993 4.612770080566406 1.501200437545776 4.612770080566406 Z M 8.266804695129395 2.450829744338989 L 8.006420135498047 2.382630348205566 C 7.579140663146973 2.270720243453979 7.280730247497559 1.894570350646973 7.280730247497559 1.467900276184082 C 7.280730247497559 0.9456902742385864 7.722950458526611 0.5208302736282349 8.266500473022461 0.5208302736282349 C 8.810550689697266 0.5208302736282349 9.253170013427734 0.9456902742385864 9.253170013427734 1.467900276184082 C 9.253170013427734 1.894220352172852 8.95464038848877 2.270310401916504 8.527200698852539 2.382490396499634 L 8.266804695129395 2.450829744338989 Z" stroke="none"/>
        <path d="M 12.13613033294678 10.26143074035645 L 12.13613033294678 9.950400352478027 L 12.13613033294678 9.80010986328125 L 12.17861080169678 9.655950546264648 L 13.02236843109131 6.792708873748779 C 12.69764518737793 6.866382598876953 12.36275386810303 6.904270172119141 12.02310085296631 6.904270172119141 C 10.92304039001465 6.904270172119141 9.86815071105957 6.504120349884033 9.052750587463379 5.777550220489502 C 8.745428085327148 5.50370454788208 8.481768608093262 5.192436218261719 8.266864776611328 4.853643417358398 C 8.05182933807373 5.192562580108643 7.788023948669434 5.503879547119141 7.480470657348633 5.777810096740723 C 6.664900302886963 6.504220485687256 5.609930515289307 6.904270172119141 4.509900569915771 6.904270172119141 C 4.206695079803467 6.904270172119141 3.907266616821289 6.873997211456299 3.615342617034912 6.814927577972412 L 4.524650573730469 9.630240440368652 L 4.575070381164551 9.786350250244141 L 4.575070381164551 9.950400352478027 L 4.575070381164551 10.26143074035645 L 12.13613033294678 10.26143074035645 M 15.03180027008057 4.091930389404297 C 15.28519058227539 4.091930389404297 15.49133014678955 3.900320291519165 15.49133014678955 3.664800405502319 C 15.49133014678955 3.429770231246948 15.28519058227539 3.238570213317871 15.03180027008057 3.238570213317871 C 14.77841091156006 3.238570213317871 14.57227039337158 3.429770231246948 14.57227039337158 3.664800405502319 C 14.57227039337158 3.851110219955444 14.69619083404541 3.98080039024353 14.81217002868652 4.040050506591797 L 14.85321235656738 4.061016082763672 L 14.89783000946045 4.0736403465271 C 14.94073009490967 4.085780143737793 14.98580074310303 4.091930389404297 15.03180027008057 4.091930389404297 M 1.501200437545776 4.091930389404297 C 1.551540493965149 4.091930389404297 1.600650429725647 4.084620475769043 1.647160530090332 4.070210456848145 L 1.685858845710754 4.058216094970703 L 1.721790432929993 4.039860248565674 C 1.837740421295166 3.980630397796631 1.961630463600159 3.850990295410156 1.961630463600159 3.664800405502319 C 1.961630463600159 3.429770231246948 1.755080461502075 3.238570213317871 1.501200437545776 3.238570213317871 C 1.247810482978821 3.238570213317871 1.041670441627502 3.429770231246948 1.041670441627502 3.664800405502319 C 1.041670441627502 3.900320291519165 1.247810482978821 4.091930389404297 1.501200437545776 4.091930389404297 M 8.266654968261719 1.912388920783997 L 8.394980430603027 1.878710269927979 C 8.593610763549805 1.826590299606323 8.732330322265625 1.657650351524353 8.732330322265625 1.467900276184082 C 8.732330322265625 1.23287034034729 8.523360252380371 1.041670322418213 8.266500473022461 1.041670322418213 C 8.010130882263184 1.041670322418213 7.801570415496826 1.23287034034729 7.801570415496826 1.467900276184082 C 7.801570415496826 1.657890319824219 7.940070629119873 1.826850295066833 8.13838005065918 1.878790259361267 L 8.266654968261719 1.912388920783997 M 13.17780017852783 11.3031005859375 L 13.17690086364746 11.3031005859375 L 3.533400535583496 11.3031005859375 L 3.533400535583496 9.950400352478027 L 1.955540418624878 5.06518030166626 C 1.812220454216003 5.109600067138672 1.659570455551147 5.133600234985352 1.501200437545776 5.133600234985352 C 0.6723004579544067 5.133600234985352 4.73022453206795e-07 4.475700378417969 4.73022453206795e-07 3.664800405502319 C 4.73022453206795e-07 2.853900194168091 0.6723004579544067 2.196900367736816 1.501200437545776 2.196900367736816 C 2.331000566482544 2.196900367736816 3.003300428390503 2.853900194168091 3.003300428390503 3.664800405502319 C 3.003300428390503 4.230810165405273 2.675710439682007 4.722260475158691 2.195680379867554 4.967490196228027 C 2.817060470581055 5.535840511322021 3.64499044418335 5.862600326538086 4.509900569915771 5.862600326538086 C 6.263220310211182 5.862600326538086 7.709060668945312 4.554230213165283 7.87445068359375 2.886470317840576 C 7.232230663299561 2.718260288238525 6.759900569915771 2.146700382232666 6.759900569915771 1.467900276184082 C 6.759900569915771 0.6570003032684326 7.434000492095947 2.929687639152689e-07 8.266500473022461 2.929687639152689e-07 C 9.099000930786133 2.929687639152689e-07 9.77400016784668 0.6570003032684326 9.77400016784668 1.467900276184082 C 9.77400016784668 2.146410226821899 9.301410675048828 2.717770338058472 8.65941047668457 2.886260271072388 C 8.824700355529785 4.554020404815674 10.26978015899658 5.862600326538086 12.02310085296631 5.862600326538086 C 12.89122009277344 5.862600326538086 13.7171802520752 5.536550521850586 14.33830070495605 4.967690467834473 C 13.85838031768799 4.722530364990234 13.53060054779053 4.230950355529785 13.53060054779053 3.664800405502319 C 13.53060054779053 2.853900194168091 14.20290088653564 2.196900367736816 15.03180027008057 2.196900367736816 C 15.8607006072998 2.196900367736816 16.53300094604492 2.853900194168091 16.53300094604492 3.664800405502319 C 16.53300094604492 4.475700378417969 15.8607006072998 5.133600234985352 15.03180027008057 5.133600234985352 C 14.88690090179443 5.133600234985352 14.74680042266846 5.113470077514648 14.61423015594482 5.075960159301758 L 13.17780017852783 9.950400352478027 L 13.17780017852783 11.30220031738281 L 13.17780017852783 11.3031005859375 Z" stroke="none" fill="#bc6b09"/>
      </g>
      <g id="矩形" transform="translate(26.867 9.248)" fill="none" stroke="#bc6b09" stroke-miterlimit="10" stroke-width="1.042" opacity="0.5">
        <rect id="fill" width="8.783" height="1.028" stroke="none"/>
        <path d="M0,0.5066896080970764h8.783333778381348M8.26250046491623,0v1.0275229215621948M8.783333778381348,0.5208333134651184h-8.783333778381348M0.5208333134651184,1.0275229215621948v-1.0275229215621948" fill="none" clip-path="url(#clip)"/>
      </g>
    </g>
    <g id="第一名1" transform="translate(5 42)">
      <rect id="矩形-2" data-name="矩形" width="53" height="14" fill="none"/>
      <g id="形状_15" data-name="形状 15" transform="translate(0 2)" fill="#fecd28" stroke-miterlimit="10">
        <path d="M 3.324767589569092 8.868258476257324 C 3.330528736114502 8.837191581726074 3.336304903030396 8.805879592895508 3.342131614685059 8.774294853210449 C 3.52899169921875 7.761435031890869 3.722211599349976 6.714094638824463 4.733201503753662 6.541244983673096 L 5.407521724700928 6.425964832305908 L 4.827241897583008 6.063654899597168 C 3.542999505996704 5.261831760406494 2.156795501708984 4.400587558746338 1.474045991897583 3.976714849472046 C 2.400185346603394 3.614415884017944 4.619038105010986 2.86213493347168 7.07379150390625 2.86213493347168 C 9.133384704589844 2.86213493347168 10.90868759155273 3.383230209350586 12.35242366790771 4.4111328125 C 12.62082481384277 6.756190299987793 12.6794900894165 7.684112071990967 12.68881988525391 8.041939735412598 C 11.26669692993164 8.048422813415527 5.481437683105469 8.121283531188965 3.324767589569092 8.868258476257324 Z" stroke="none"/>
        <path d="M 7.07379150390625 3.122544765472412 C 5.02449893951416 3.122544765472412 3.139808654785156 3.657552242279053 2.063111305236816 4.035988330841064 C 2.809292793273926 4.499529361724854 3.920854568481445 5.190738201141357 4.965161323547363 5.842764854431152 L 6.125741481781006 6.567384719848633 L 4.777091979980469 6.797945022583008 C 4.080203056335449 6.917073726654053 3.85249137878418 7.54098653793335 3.660975456237793 8.493855476379395 C 4.664093017578125 8.227293014526367 6.230106353759766 8.035500526428223 8.396800994873047 7.912135124206543 C 10.06059455871582 7.817398071289062 11.62751388549805 7.791000843048096 12.41688442230225 7.783689498901367 C 12.39078712463379 7.318167209625244 12.31521224975586 6.387599945068359 12.10697650909424 4.557141304016113 C 10.7252140045166 3.605029106140137 9.033220291137695 3.122544765472412 7.07379150390625 3.122544765472412 M 7.073791980743408 2.601715564727783 C 8.906579971313477 2.601715564727783 10.88157939910889 3.007364273071289 12.59805202484131 4.267374992370605 C 13.03458213806152 8.060094833374023 12.94189167022705 8.301754951477051 12.94189167022705 8.301754951477051 C 12.94189167022705 8.301754951477051 12.93749713897705 8.301748275756836 12.92889404296875 8.301748275756836 C 12.56360340118408 8.301748275756836 4.607220649719238 8.31321907043457 2.969942092895508 9.310355186462402 C 3.229432106018066 8.186244964599609 3.267551422119141 6.527614593505859 4.689321517944336 6.284554958343506 C 2.885581970214844 5.158374786376953 0.9068212509155273 3.931184768676758 0.9068212509155273 3.931184768676758 C 0.9068212509155273 3.931184768676758 3.756795883178711 2.601715564727783 7.073791980743408 2.601715564727783 Z" stroke="none" fill="#c87819"/>
      </g>
      <g id="形状_16" data-name="形状 16" transform="translate(37.725 0.5)" fill="#ffd22c" stroke-miterlimit="10">
        <path d="M 1.901731252670288 9.534862518310547 L 0.9612664580345154 5.243701934814453 C 1.714251518249512 4.90656852722168 4.654691219329834 3.685463428497314 7.730988025665283 3.685463428497314 C 10.0360689163208 3.685463428497314 11.90342998504639 4.359947204589844 13.28777694702148 5.691310882568359 C 11.46167373657227 6.622394561767578 11.09094905853271 7.654496192932129 11.07527828216553 7.700413227081299 L 11.02850818634033 7.837413311004639 L 11.12017822265625 7.949453353881836 L 12.16089725494385 9.221414566040039 L 1.901731252670288 9.534862518310547 Z" stroke="none"/>
        <path d="M 7.730988025665283 3.945873260498047 C 4.923275947570801 3.945873260498047 2.223773956298828 4.983754634857178 1.261359214782715 5.396529674530029 L 2.109836578369141 9.267971038818359 L 11.62465476989746 8.977265357971191 L 10.91862773895264 8.114363670349121 L 10.7352876663208 7.890283584594727 L 10.82881736755371 7.616283416748047 C 10.86900424957275 7.49857234954834 11.23579120635986 6.546433448791504 12.84019660949707 5.636184692382812 C 11.53509712219238 4.513989448547363 9.820028305053711 3.945873260498047 7.730988025665283 3.945873260498047 M 7.730990886688232 3.425045967102051 C 9.854453086853027 3.425045967102051 12.0598316192627 3.987723827362061 13.72870826721191 5.767373561859131 C 11.69170761108398 6.70068359375 11.32172775268555 7.784543514251709 11.32172775268555 7.784543514251709 L 12.69714736938477 9.465573310852051 L 1.693628311157227 9.801763534545898 L 0.6620674133300781 5.094953536987305 C 0.6620674133300781 5.094953536987305 4.074289321899414 3.425045967102051 7.730990886688232 3.425045967102051 Z" stroke="none" fill="#c87819"/>
      </g>
      <path id="形状_17" data-name="形状 17" d="M.4,4.371H7.909L8.94.672,0,0Z" transform="translate(5.721 5.931)" fill="#a03e00"/>
      <path id="形状_17_拷贝" data-name="形状 17 拷贝" d="M9.424,4.629,1.86,5.3.828,1.6,9.768.931Z" transform="translate(37.216 5)" fill="#a03e00"/>
      <g id="形状_14" data-name="形状 14" transform="translate(5.377 0.043)" stroke-miterlimit="10" fill="url(#linear-gradient-3)">
        <path d="M 0.9473134875297546 9.601597785949707 C 0.6361532211303711 7.678812503814697 0.3622747659683228 6.222337245941162 0.2803904116153717 5.794191837310791 C 0.5934104323387146 5.466161251068115 1.855306148529053 4.264133453369141 4.546577930450439 3.074582099914551 C 6.393757820129395 2.258121967315674 8.542267799377441 1.607452034950256 10.93240737915039 1.140642046928406 C 13.9229679107666 0.5565720200538635 17.30193710327148 0.2604219913482666 20.9754581451416 0.2604219913482666 C 34.84921646118164 0.2604219913482666 38.86150741577148 3.057791948318481 40.57483673095703 4.252322196960449 C 40.89148712158203 4.473093509674072 41.12681198120117 4.637162685394287 41.34503555297852 4.730281352996826 C 41.31736373901367 7.782209873199463 41.16070175170898 8.998327255249023 41.07601165771484 9.438047409057617 C 40.56705856323242 9.308175086975098 39.30428314208984 9.019612312316895 37.14503860473633 8.728732109069824 C 34.52436828613281 8.375692367553711 30.03163719177246 7.954852104187012 23.51072692871094 7.954852104187012 C 22.57143783569336 7.954852104187012 21.60118865966797 7.963572025299072 20.62691688537598 7.980772018432617 L 20.62328720092773 7.980842113494873 L 20.61965751647949 7.981001853942871 C 9.688628196716309 8.47953987121582 2.779962062835693 9.050359725952148 0.9473134875297546 9.601597785949707 Z" stroke="none"/>
        <path d="M 1.158344149589539 9.277192115783691 C 3.939615488052368 8.602680206298828 13.05993270874023 8.065096855163574 20.6077880859375 7.720861911773682 L 20.61504745483398 7.720531940460205 L 20.62231826782227 7.720401763916016 C 21.59815788269043 7.70316219329834 22.5699577331543 7.694431781768799 23.51072692871094 7.694431781768799 C 33.9128303527832 7.694431781768799 39.23553466796875 8.729304313659668 40.86460113525391 9.117076873779297 C 40.94540023803711 8.548674583435059 41.05649566650391 7.336968898773193 41.0829963684082 4.892072200775146 C 40.88548278808594 4.786369800567627 40.67593002319336 4.640275955200195 40.42589950561523 4.465951919555664 C 38.73265838623047 3.285422086715698 34.76739883422852 0.5208320021629333 20.9754581451416 0.5208320021629333 C 17.33538818359375 0.5208320021629333 13.98687744140625 0.8127020001411438 11.0229377746582 1.388321995735168 C 8.656328201293945 1.847941994667053 6.528817653656006 2.488352060317993 4.699487686157227 3.291781902313232 C 2.230234861373901 4.376261234283447 0.9767351746559143 5.470641136169434 0.5617107152938843 5.879540920257568 C 0.6604743003845215 6.401227951049805 0.8926604986190796 7.654841899871826 1.158344149589539 9.277192115783691 M 0.7406177520751953 9.956602096557617 C 0.3449777662754059 7.478511810302734 -2.222290049758158e-06 5.715372085571289 -2.222290049758158e-06 5.715372085571289 C -2.222290049758158e-06 5.715372085571289 4.723598003387451 2.001953134822543e-06 20.9754581451416 2.001953134822543e-06 C 38.07721710205078 2.001953134822543e-06 40.34909820556641 4.271992206573486 41.60697937011719 4.542992115020752 C 41.57473754882812 9.057652473449707 41.26312637329102 9.75836181640625 41.26312637329102 9.75836181640625 C 41.26312637329102 9.75836181640625 36.10630416870117 8.215265274047852 23.5107250213623 8.215265274047852 C 22.5909481048584 8.215265274047852 21.63151741027832 8.223493576049805 20.63151741027832 8.241151809692383 C 7.931257724761963 8.820371627807617 1.72263777256012 9.452692031860352 0.7406177520751953 9.956602096557617 Z" stroke="none" fill="#c87819"/>
      </g>
      <path id="路径" d="M0,5.5S6.882,0,21.157,0,40.529,4.5,40.529,4.5" transform="translate(5.863 0.5)" fill="none" stroke="#fbd77f" stroke-linecap="round" stroke-miterlimit="10" stroke-width="0.5"/>
    </g>
    <circle id="头像" cx="17" cy="17" r="17" transform="translate(14 14)" stroke="#d78625" stroke-miterlimit="10" stroke-width="1.042" fill="url(#pattern)"/>
  </g>
</svg>
