<svg id="播放-1-50_50" data-name="播放-1-50*50" xmlns="http://www.w3.org/2000/svg" width="50" height="50" viewBox="0 0 50 50">
  <rect id="矩形" width="50" height="50" opacity="0"/>
  <path id="形状" d="M19.478,38.95A19.475,19.475,0,1,1,38.95,19.478,19.5,19.5,0,0,1,19.478,38.95Zm0-34.253a14.78,14.78,0,1,0,14.78,14.781A14.8,14.8,0,0,0,19.478,4.7Z" transform="translate(5.62 5.581)" fill="#bdd2ef"/>
  <path id="路径" d="M1.943.175l12.2,7.046a1.293,1.293,0,0,1,0,2.241l-12.2,7.051A1.3,1.3,0,0,1,0,15.39V1.3A1.3,1.3,0,0,1,1.943.175Z" transform="translate(19.399 16.715)" fill="#2867ce"/>
</svg>
