<svg id="播放-2-16_16" data-name="播放-2-16*16" xmlns="http://www.w3.org/2000/svg" width="14" height="14" viewBox="0 0 14 14">
  <rect id="矩形" width="14" height="14" opacity="0"/>
  <path id="形状" d="M5.833,11.667a5.833,5.833,0,1,1,5.834-5.834A5.84,5.84,0,0,1,5.833,11.667Zm0-10.733a4.9,4.9,0,1,0,4.9,4.9A4.905,4.905,0,0,0,5.833.933Z" transform="translate(1.167 1.167)" fill="#3793df"/>
  <path id="形状-2" data-name="形状" d="M.957,6.723A1.142,1.142,0,0,1,.49,6.606.914.914,0,0,1,0,5.79V.936A.94.94,0,0,1,.49.12.977.977,0,0,1,.949,0a.853.853,0,0,1,.474.143l4.2,2.4a.948.948,0,0,1,.467.817.982.982,0,0,1-.444.816l-4.224,2.4A.839.839,0,0,1,.957,6.723Zm0-5.787V5.79l4.2-2.426Z" transform="translate(4.643 3.637)" fill="#eb4af4"/>
</svg>
