<svg id="播放-2-50_50" data-name="播放-2-50*50" xmlns="http://www.w3.org/2000/svg" width="50" height="50" viewBox="0 0 50 50">
  <rect id="矩形" width="50" height="50" opacity="0"/>
  <path id="形状" d="M19.166,38.334A19.172,19.172,0,0,1,11.708,1.507a19.17,19.17,0,0,1,14.916,35.32A19.033,19.033,0,0,1,19.166,38.334Zm0-35.267A16.1,16.1,0,0,0,7.782,30.552a16.1,16.1,0,0,0,22.77-22.77A16,16,0,0,0,19.166,3.066Z" transform="translate(5.833 5.833)" fill="#3793df"/>
  <path id="形状-2" data-name="形状" d="M3.144,22.09a3.752,3.752,0,0,1-1.534-.383A3.01,3.01,0,0,1,0,19.023V3.077A3.087,3.087,0,0,1,1.61.393,3.2,3.2,0,0,1,3.119,0,2.8,2.8,0,0,1,4.676.47l13.8,7.9A3.109,3.109,0,0,1,20.01,11.05a3.228,3.228,0,0,1-1.456,2.683L4.676,21.63A2.751,2.751,0,0,1,3.144,22.09Zm0-19.013V19.023l13.8-7.973Z" transform="translate(17.257 13.95)" fill="#eb4af4"/>
</svg>
