<svg id="qq" xmlns="http://www.w3.org/2000/svg" width="40" height="40" viewBox="0 0 40 40">
  <defs>
    <style>
      .cls-1 {
        opacity: 0;
      }

      .cls-2 {
        fill: #d8d8d8;
      }
    </style>
  </defs>
  <rect id="矩形" class="cls-1" width="40" height="40"/>
  <path id="形状" class="cls-2" d="M18.749,37.5a18.755,18.755,0,0,1-7.3-36.027,18.755,18.755,0,0,1,14.6,34.553A18.633,18.633,0,0,1,18.749,37.5Zm.009-8.4h0a7.762,7.762,0,0,0,3.881.887c2.675,0,4.851-1,4.851-2.219,0-.687-.677-1.322-1.857-1.743a12.113,12.113,0,0,0,1.324-2.575c.6.834,1.219,1.313,1.691,1.313a.6.6,0,0,0,.423-.168c.661-.62.4-2.817-.572-4.9a9.8,9.8,0,0,0-.718-1.275,12.6,12.6,0,0,0-2.725-7.73,8.154,8.154,0,0,0-6.29-3.183H18.75a8.154,8.154,0,0,0-6.291,3.186,12.594,12.594,0,0,0-2.725,7.727,9.794,9.794,0,0,0-.719,1.275c-.982,2.076-1.239,4.274-.572,4.9a.6.6,0,0,0,.421.166c.47,0,1.087-.478,1.694-1.312a11.771,11.771,0,0,0,1.324,2.575c-1.163.415-1.857,1.066-1.857,1.743,0,1.224,2.176,2.219,4.851,2.219a7.724,7.724,0,0,0,3.882-.887Z" transform="translate(1.251 1.25)"/>
</svg>
