<svg id="select" xmlns="http://www.w3.org/2000/svg" width="12" height="12" viewBox="0 0 12 12">
  <g id="Shape">
    <g id="编组">
      <g id="组_1" data-name="组 1" transform="translate(0.459 0)">
        <rect id="矩形_3" data-name="矩形 3" width="12" height="12" transform="translate(-0.459 0)" fill="none"/>
        <path id="路径" d="M4.156,10.505a1.066,1.066,0,0,1-.776-.343L.332,6.925a1.273,1.273,0,0,1-.016-1.7,1.049,1.049,0,0,1,1.567-.017l2.16,2.294L9.1.464a1.052,1.052,0,0,1,1.555-.21,1.269,1.269,0,0,1,.194,1.685l-5.818,8.1a1.088,1.088,0,0,1-.8.461Z" transform="translate(0 0.747)" fill="#5584ff"/>
      </g>
      <rect id="矩形" width="11.077" height="12" fill="none"/>
    </g>
  </g>
</svg>
