<svg id="Shape-上传" xmlns="http://www.w3.org/2000/svg" width="24" height="24" viewBox="0 0 24 24">
  <g id="编组">
    <path id="路径" d="M8.083.328A1.117,1.117,0,0,0,6.5.328L.327,6.5A1.118,1.118,0,0,0,1.908,8.084L6.174,3.817V17.511a1.118,1.118,0,0,0,2.236,0V3.817l4.267,4.267A1.118,1.118,0,0,0,14.258,6.5Z" transform="translate(4.725)" fill="#666"/>
    <path id="路径-2" data-name="路径" d="M21.724,1.031V7.217a1.03,1.03,0,0,1-1.031,1.031H3.093A1.03,1.03,0,0,1,2.062,7.217V1.031A1.031,1.031,0,1,0,0,1.031V8.248A2.064,2.064,0,0,0,2.062,10.31H21.724a2.064,2.064,0,0,0,2.062-2.062V1.031a1.031,1.031,0,0,0-2.062,0Z" transform="translate(0.101 13.667)" fill="#666"/>
    <rect id="矩形" width="24" height="24" fill="none"/>
  </g>
</svg>
