<svg id="学生" xmlns="http://www.w3.org/2000/svg" width="16" height="16" viewBox="0 0 16 16">
  <rect id="矩形" width="16" height="16" opacity="0"/>
  <path id="形状" d="M7.786,13.7H2.156a2.135,2.135,0,0,1-1.691-.823,2.16,2.16,0,0,1-.4-1.84L.4,9.194a2.74,2.74,0,0,1,3-2.038.5.5,0,0,1,0,1c-.741,0-1.757.129-2.024,1.248l-.344,1.84A1.163,1.163,0,0,0,2.163,12.7H7.781a1.163,1.163,0,0,0,1.13-1.435L8.557,9.378a1.844,1.844,0,0,0-2.021-1.3.5.5,0,0,1,0-1,2.785,2.785,0,0,1,3,2.089l.354,1.889a2.16,2.16,0,0,1-2.1,2.639ZM4.941,6.306A3.035,3.035,0,0,1,2.048,3.153,3.035,3.035,0,0,1,4.941,0,3.035,3.035,0,0,1,7.835,3.153,3.035,3.035,0,0,1,4.941,6.306ZM4.941,1A2.075,2.075,0,0,0,2.964,3.153,2.075,2.075,0,0,0,4.941,5.309,2.075,2.075,0,0,0,6.919,3.153,2.075,2.075,0,0,0,4.941,1Z" transform="translate(3.029 1.136)" fill="#fff"/>
</svg>
