<svg id="播放16_16" data-name="播放16*16" xmlns="http://www.w3.org/2000/svg" width="16" height="16" viewBox="0 0 16 16">
  <rect id="矩形" width="16" height="16" opacity="0"/>
  <path id="形状" d="M6.233,12.464a6.232,6.232,0,1,1,6.232-6.232A6.239,6.239,0,0,1,6.233,12.464Zm0-10.961a4.73,4.73,0,1,0,4.73,4.73A4.735,4.735,0,0,0,6.233,1.5Z" transform="translate(1.798 1.786)" fill="#bdd2ef"/>
  <path id="路径" d="M.622.056l3.9,2.255a.414.414,0,0,1,0,.717L.622,5.284A.415.415,0,0,1,0,4.925V.415A.415.415,0,0,1,.622.056Z" transform="translate(6.208 5.349)" fill="#2867ce"/>
</svg>
