<svg xmlns="http://www.w3.org/2000/svg" width="14" height="14" viewBox="0 0 14 14">
  <g id="清除" transform="translate(-1546 -618)">
    <rect id="矩形_2" data-name="矩形 2" width="14" height="14" transform="translate(1546 618)" fill="none"/>
    <path id="形状" d="M6.4,12.8a6.4,6.4,0,1,1,6.4-6.4A6.407,6.407,0,0,1,6.4,12.8Zm0-5.272h0l1.7,1.7A.8.8,0,0,0,9.232,8.1l-1.7-1.7,1.7-1.7a.8.8,0,0,0-.568-1.372.8.8,0,0,0-.568.235l-1.7,1.7-1.7-1.7A.8.8,0,0,0,3.568,4.7l1.7,1.7-1.7,1.7A.8.8,0,0,0,4.7,9.232L6.4,7.528Z" transform="translate(1546.6 618.6)" fill="#d8d8d8"/>
  </g>
</svg>
